<svg xmlns="http://www.w3.org/2000/svg" version="1.0" width="48.000000pt" height="48.000000pt" viewBox="0 0 48.000000 48.000000" preserveAspectRatio="xMidYMid meet">
  <style>
    path {
      fill: black;
    }
    @media (prefers-color-scheme: dark) {
      path {
        fill: white;
      }
    }
  </style>
<g transform="translate(0.000000,48.000000) scale(0.100000,-0.100000)">
<path d="M98 369 c-43 -22 -78 -81 -78 -129 0 -50 35 -107 80 -130 42 -22 96 -26 120 -10 13 9 13 12 -3 21 -24 14 -57 82 -57 119 0 37 33 105 57 119 16 9 16 12 3 21 -24 16 -82 11 -122 -11z"/>
<path d="M260 380 c-8 -5 -11 -12 -7 -16 4 -4 -7 -23 -25 -41 -28 -29 -33 -41 -33 -83 0 -42 5 -54 33 -83 18 -18 29 -37 25 -41 -12 -11 19 -26 55 -26 78 0 152 73 152 150 0 50 -35 107 -80 130 -41 21 -95 26 -120 10z m134 -59 c26 -27 31 -39 31 -81 0 -42 -5 -54 -31 -81 -21 -21 -44 -32 -72 -36 -23 -3 -42 -3 -42 1 0 4 9 24 20 46 11 22 20 53 20 70 0 17 -9 48 -20 70 -11 22 -20 42 -20 46 0 4 19 4 42 1 28 -4 51 -15 72 -36z"/>
</g>
</svg>